<mxfile host="" modified="2020-06-12T00:36:44.445Z" agent="5.0 (Windows NT 10.0; Win64; x64) AppleWebKit/537.36 (KHTML, like Gecko) Code/1.45.1 Chrome/78.0.3904.130 Electron/7.2.4 Safari/537.36" etag="nrMYPXmpNVQhHKTX1zHO" version="13.1.3">
    <diagram id="cLUQif01xjRQRyUT_K3b" name="Page-1">
        <mxGraphModel dx="1230" dy="518" grid="1" gridSize="10" guides="1" tooltips="1" connect="1" arrows="1" fold="1" page="1" pageScale="1" pageWidth="827" pageHeight="1169" math="0" shadow="0">
            <root>
                <mxCell id="0"/>
                <mxCell id="1" parent="0"/>
                <mxCell id="Egkcq_fnfHltWPDeU1VQ-6" style="edgeStyle=orthogonalEdgeStyle;rounded=0;orthogonalLoop=1;jettySize=auto;html=1;exitX=0.5;exitY=1;exitDx=0;exitDy=0;entryX=0.5;entryY=0;entryDx=0;entryDy=0;" parent="1" source="Egkcq_fnfHltWPDeU1VQ-2" target="Egkcq_fnfHltWPDeU1VQ-3" edge="1">
                    <mxGeometry relative="1" as="geometry"/>
                </mxCell>
                <mxCell id="Egkcq_fnfHltWPDeU1VQ-7" style="edgeStyle=orthogonalEdgeStyle;rounded=0;orthogonalLoop=1;jettySize=auto;html=1;exitX=0.5;exitY=1;exitDx=0;exitDy=0;" parent="1" source="Egkcq_fnfHltWPDeU1VQ-2" target="Egkcq_fnfHltWPDeU1VQ-4" edge="1">
                    <mxGeometry relative="1" as="geometry"/>
                </mxCell>
                <mxCell id="Egkcq_fnfHltWPDeU1VQ-8" style="edgeStyle=orthogonalEdgeStyle;rounded=0;orthogonalLoop=1;jettySize=auto;html=1;exitX=0.5;exitY=1;exitDx=0;exitDy=0;" parent="1" source="Egkcq_fnfHltWPDeU1VQ-2" target="Egkcq_fnfHltWPDeU1VQ-5" edge="1">
                    <mxGeometry relative="1" as="geometry"/>
                </mxCell>
                <mxCell id="3" style="edgeStyle=orthogonalEdgeStyle;rounded=0;orthogonalLoop=1;jettySize=auto;html=1;exitX=1;exitY=0.5;exitDx=0;exitDy=0;entryX=0;entryY=0.5;entryDx=0;entryDy=0;" edge="1" parent="1" source="Egkcq_fnfHltWPDeU1VQ-2" target="2">
                    <mxGeometry relative="1" as="geometry"/>
                </mxCell>
                <mxCell id="Egkcq_fnfHltWPDeU1VQ-2" value="&lt;h1&gt;Meta-learning&lt;/h1&gt;&lt;p&gt;&quot;학습하기 위해 학습한다&quot; 라고 알려져있는 meta-learning 은 기존 데이터를 활용하여금 새로운 기술을 배우거나, 새로운 환경에 빠르게 적응할 수 있도록 설계하는 것을 나타낸다.&lt;/p&gt;" style="text;html=1;strokeColor=none;fillColor=none;spacing=5;spacingTop=-20;whiteSpace=wrap;overflow=hidden;rounded=0;" parent="1" vertex="1">
                    <mxGeometry x="292.5" y="180" width="250" height="110" as="geometry"/>
                </mxCell>
                <mxCell id="Egkcq_fnfHltWPDeU1VQ-3" value="&lt;h1&gt;Metric 기반&lt;/h1&gt;&lt;p&gt;efficient distance metric 을 학습하는 방식&lt;/p&gt;" style="text;html=1;strokeColor=none;fillColor=none;spacing=5;spacingTop=-20;whiteSpace=wrap;overflow=hidden;rounded=0;" parent="1" vertex="1">
                    <mxGeometry x="42.5" y="340" width="230" height="70" as="geometry"/>
                </mxCell>
                <mxCell id="Egkcq_fnfHltWPDeU1VQ-4" value="&lt;h1&gt;model 기반&lt;/h1&gt;&lt;p&gt;external / internal memory 를 통한 (recurrent) network 를 사용하는 방식&lt;/p&gt;" style="text;html=1;strokeColor=none;fillColor=none;spacing=5;spacingTop=-20;whiteSpace=wrap;overflow=hidden;rounded=0;" parent="1" vertex="1">
                    <mxGeometry x="302.5" y="340" width="230" height="80" as="geometry"/>
                </mxCell>
                <mxCell id="Egkcq_fnfHltWPDeU1VQ-5" value="&lt;h1&gt;optimization 기반&lt;/h1&gt;&lt;p&gt;fast learning 을 위한 model parameter 를 최적화하는 방식&lt;/p&gt;" style="text;html=1;strokeColor=none;fillColor=none;spacing=5;spacingTop=-20;whiteSpace=wrap;overflow=hidden;rounded=0;" parent="1" vertex="1">
                    <mxGeometry x="552.5" y="340" width="230" height="80" as="geometry"/>
                </mxCell>
                <mxCell id="Egkcq_fnfHltWPDeU1VQ-10" style="edgeStyle=orthogonalEdgeStyle;rounded=0;orthogonalLoop=1;jettySize=auto;html=1;exitX=0.5;exitY=1;exitDx=0;exitDy=0;entryX=0.5;entryY=0;entryDx=0;entryDy=0;" parent="1" source="Egkcq_fnfHltWPDeU1VQ-9" target="Egkcq_fnfHltWPDeU1VQ-2" edge="1">
                    <mxGeometry relative="1" as="geometry"/>
                </mxCell>
                <mxCell id="Egkcq_fnfHltWPDeU1VQ-9" value="&lt;h1&gt;Meta-learning&lt;/h1&gt;&lt;p&gt;&lt;a href=&quot;https://talkingaboutme.tistory.com/entry/DL-Meta-Learning-Learning-to-Learn-Fast&quot;&gt;https://talkingaboutme.tistory.com/entry/DL-Meta-Learning-Learning-to-Learn-Fast&lt;/a&gt;&lt;br&gt;&lt;/p&gt;" style="text;html=1;strokeColor=none;fillColor=none;spacing=5;spacingTop=-20;whiteSpace=wrap;overflow=hidden;rounded=0;" parent="1" vertex="1">
                    <mxGeometry x="322.5" y="40" width="190" height="80" as="geometry"/>
                </mxCell>
                <mxCell id="5" style="edgeStyle=orthogonalEdgeStyle;rounded=0;orthogonalLoop=1;jettySize=auto;html=1;exitX=0.5;exitY=1;exitDx=0;exitDy=0;entryX=0.5;entryY=0;entryDx=0;entryDy=0;" edge="1" parent="1" source="2" target="4">
                    <mxGeometry relative="1" as="geometry"/>
                </mxCell>
                <mxCell id="2" value="meta-leaning 이라고 하면, training 동안 접하지 않았던 새로운 task 나 environment에 대해서 잘 적응하거나, 일반화가 잘 되는것을 말한다." style="text;html=1;strokeColor=none;fillColor=none;align=center;verticalAlign=middle;whiteSpace=wrap;rounded=0;" vertex="1" parent="1">
                    <mxGeometry x="620" y="210" width="260" height="50" as="geometry"/>
                </mxCell>
                <mxCell id="7" style="edgeStyle=orthogonalEdgeStyle;rounded=0;orthogonalLoop=1;jettySize=auto;html=1;exitX=0.5;exitY=1;exitDx=0;exitDy=0;entryX=0.5;entryY=0;entryDx=0;entryDy=0;" edge="1" parent="1" source="4" target="6">
                    <mxGeometry relative="1" as="geometry"/>
                </mxCell>
                <mxCell id="4" value="새로운 task란 machine learning&amp;nbsp; 으로 정의될 수 있는 모든 문제를 의미" style="text;html=1;strokeColor=none;fillColor=none;align=center;verticalAlign=middle;whiteSpace=wrap;rounded=0;" vertex="1" parent="1">
                    <mxGeometry x="840" y="320" width="210" height="30" as="geometry"/>
                </mxCell>
                <mxCell id="6" value="&lt;h1&gt;예시&lt;/h1&gt;&lt;p&gt;- 고양이가 없는 이미지를 학습시킨 classifier 도 고양이 사진을 본 후에는 test 이미지 상에 고양이가 있는지 여부를 판단할 수 있다.&lt;/p&gt;&lt;p&gt;- 게임봇이 새로운 게임에 대해 빠르게 마스터 할 수 있다.&lt;/p&gt;&lt;p&gt;- 평범한 자연 환경에서만 학습해온 미니 로봇이 경사진 환경에서도 task 를 수행할 수 있다.&lt;/p&gt;" style="text;html=1;strokeColor=none;fillColor=none;spacing=5;spacingTop=-20;whiteSpace=wrap;overflow=hidden;rounded=0;" vertex="1" parent="1">
                    <mxGeometry x="840" y="390" width="730" height="120" as="geometry"/>
                </mxCell>
                <mxCell id="8" value="&lt;h1&gt;Meta-Learning 문제 정의&lt;/h1&gt;&lt;p&gt;여기서는 처리해야할 문제가 supervised leaning problem 인 것에 초첨을 맞춘다.&lt;/p&gt;" style="text;html=1;strokeColor=none;fillColor=none;spacing=5;spacingTop=-20;whiteSpace=wrap;overflow=hidden;rounded=0;" vertex="1" parent="1">
                    <mxGeometry x="210" y="510" width="441" height="70" as="geometry"/>
                </mxCell>
                <mxCell id="9" value="&lt;h1&gt;A Simple View&lt;/h1&gt;&lt;p&gt;좋은 meta-learning model 은 다양한 task 에서 최고의 성능을 내도록 훈련되는 것을 말한다.&lt;/p&gt;" style="text;html=1;strokeColor=none;fillColor=none;spacing=5;spacingTop=-20;whiteSpace=wrap;overflow=hidden;rounded=0;" vertex="1" parent="1">
                    <mxGeometry x="320" y="630" width="190" height="120" as="geometry"/>
                </mxCell>
            </root>
        </mxGraphModel>
    </diagram>
</mxfile>